<mxfile host="65bd71144e">
    <diagram id="lQc0H0vKO8hXuGRxkt9W" name="Страница 1">
        <mxGraphModel dx="1911" dy="757" grid="1" gridSize="10" guides="1" tooltips="1" connect="1" arrows="1" fold="1" page="1" pageScale="1" pageWidth="827" pageHeight="1169" math="0" shadow="0">
            <root>
                <mxCell id="0"/>
                <mxCell id="1" parent="0"/>
                <mxCell id="2" value="&lt;font style=&quot;font-size: 20px;&quot;&gt;Список музыкальных произведений&lt;/font&gt;" style="rounded=0;whiteSpace=wrap;html=1;" parent="1" vertex="1">
                    <mxGeometry x="192.5" y="90" width="475" height="60" as="geometry"/>
                </mxCell>
                <mxCell id="5" value="" style="rounded=0;whiteSpace=wrap;html=1;fontSize=20;" parent="1" vertex="1">
                    <mxGeometry x="50" y="200" width="750" height="480" as="geometry"/>
                </mxCell>
                <mxCell id="6" value="" style="rounded=0;whiteSpace=wrap;html=1;fontSize=20;" parent="1" vertex="1">
                    <mxGeometry x="80" y="230" width="700" height="90" as="geometry"/>
                </mxCell>
                <mxCell id="7" value="Композитор" style="rounded=0;whiteSpace=wrap;html=1;fontSize=20;" parent="1" vertex="1">
                    <mxGeometry x="195" y="245" width="120" height="60" as="geometry"/>
                </mxCell>
                <mxCell id="8" value="Название произведения" style="rounded=0;whiteSpace=wrap;html=1;fontSize=20;" parent="1" vertex="1">
                    <mxGeometry x="328" y="245" width="180" height="60" as="geometry"/>
                </mxCell>
                <mxCell id="9" value="Номер" style="rounded=0;whiteSpace=wrap;html=1;fontSize=20;" parent="1" vertex="1">
                    <mxGeometry x="100" y="245" width="77" height="60" as="geometry"/>
                </mxCell>
                <mxCell id="10" value="Show" style="rounded=0;whiteSpace=wrap;html=1;fontSize=20;" parent="1" vertex="1">
                    <mxGeometry x="620" y="245" width="60" height="60" as="geometry"/>
                </mxCell>
                <mxCell id="13" value="Edit" style="rounded=0;whiteSpace=wrap;html=1;fontSize=20;" parent="1" vertex="1">
                    <mxGeometry x="690" y="245" width="70" height="60" as="geometry"/>
                </mxCell>
                <mxCell id="14" value="" style="rounded=0;whiteSpace=wrap;html=1;fontSize=20;" parent="1" vertex="1">
                    <mxGeometry x="80" y="340" width="700" height="90" as="geometry"/>
                </mxCell>
                <mxCell id="15" value="Композитор" style="rounded=0;whiteSpace=wrap;html=1;fontSize=20;" parent="1" vertex="1">
                    <mxGeometry x="195" y="355" width="120" height="60" as="geometry"/>
                </mxCell>
                <mxCell id="16" value="Название произведения" style="rounded=0;whiteSpace=wrap;html=1;fontSize=20;" parent="1" vertex="1">
                    <mxGeometry x="328" y="355" width="180" height="60" as="geometry"/>
                </mxCell>
                <mxCell id="17" value="Номер" style="rounded=0;whiteSpace=wrap;html=1;fontSize=20;" parent="1" vertex="1">
                    <mxGeometry x="100" y="355" width="77" height="60" as="geometry"/>
                </mxCell>
                <mxCell id="18" value="Show" style="rounded=0;whiteSpace=wrap;html=1;fontSize=20;" parent="1" vertex="1">
                    <mxGeometry x="620" y="355" width="60" height="60" as="geometry"/>
                </mxCell>
                <mxCell id="19" value="Edit" style="rounded=0;whiteSpace=wrap;html=1;fontSize=20;" parent="1" vertex="1">
                    <mxGeometry x="690" y="355" width="70" height="60" as="geometry"/>
                </mxCell>
                <mxCell id="20" value="" style="rounded=0;whiteSpace=wrap;html=1;fontSize=20;" parent="1" vertex="1">
                    <mxGeometry x="80" y="440" width="700" height="90" as="geometry"/>
                </mxCell>
                <mxCell id="21" value="Композитор" style="rounded=0;whiteSpace=wrap;html=1;fontSize=20;" parent="1" vertex="1">
                    <mxGeometry x="195" y="455" width="120" height="60" as="geometry"/>
                </mxCell>
                <mxCell id="22" value="Название произведения" style="rounded=0;whiteSpace=wrap;html=1;fontSize=20;" parent="1" vertex="1">
                    <mxGeometry x="328" y="455" width="180" height="60" as="geometry"/>
                </mxCell>
                <mxCell id="23" value="Номер" style="rounded=0;whiteSpace=wrap;html=1;fontSize=20;" parent="1" vertex="1">
                    <mxGeometry x="100" y="455" width="77" height="60" as="geometry"/>
                </mxCell>
                <mxCell id="24" value="Show" style="rounded=0;whiteSpace=wrap;html=1;fontSize=20;" parent="1" vertex="1">
                    <mxGeometry x="620" y="455" width="60" height="60" as="geometry"/>
                </mxCell>
                <mxCell id="25" value="Edit" style="rounded=0;whiteSpace=wrap;html=1;fontSize=20;" parent="1" vertex="1">
                    <mxGeometry x="690" y="455" width="70" height="60" as="geometry"/>
                </mxCell>
                <mxCell id="26" value="" style="rounded=0;whiteSpace=wrap;html=1;fontSize=20;" parent="1" vertex="1">
                    <mxGeometry x="80" y="540" width="700" height="90" as="geometry"/>
                </mxCell>
                <mxCell id="27" value="Композитор" style="rounded=0;whiteSpace=wrap;html=1;fontSize=20;" parent="1" vertex="1">
                    <mxGeometry x="195" y="555" width="120" height="60" as="geometry"/>
                </mxCell>
                <mxCell id="28" value="Название произведения" style="rounded=0;whiteSpace=wrap;html=1;fontSize=20;" parent="1" vertex="1">
                    <mxGeometry x="328" y="555" width="180" height="60" as="geometry"/>
                </mxCell>
                <mxCell id="29" value="Номер" style="rounded=0;whiteSpace=wrap;html=1;fontSize=20;" parent="1" vertex="1">
                    <mxGeometry x="100" y="555" width="77" height="60" as="geometry"/>
                </mxCell>
                <mxCell id="30" value="Show" style="rounded=0;whiteSpace=wrap;html=1;fontSize=20;" parent="1" vertex="1">
                    <mxGeometry x="620" y="555" width="60" height="60" as="geometry"/>
                </mxCell>
                <mxCell id="31" value="Edit" style="rounded=0;whiteSpace=wrap;html=1;fontSize=20;" parent="1" vertex="1">
                    <mxGeometry x="690" y="555" width="70" height="60" as="geometry"/>
                </mxCell>
                <mxCell id="33" value="Музыкальное произведение" style="rounded=0;whiteSpace=wrap;html=1;fontSize=20;" parent="1" vertex="1">
                    <mxGeometry x="1086" y="720" width="310" height="60" as="geometry"/>
                </mxCell>
                <mxCell id="34" value="" style="rounded=0;whiteSpace=wrap;html=1;fontSize=20;" parent="1" vertex="1">
                    <mxGeometry x="881" y="820" width="749" height="440" as="geometry"/>
                </mxCell>
                <mxCell id="37" value="Композитор" style="rounded=0;whiteSpace=wrap;html=1;fontSize=20;" parent="1" vertex="1">
                    <mxGeometry x="1045" y="855" width="120" height="60" as="geometry"/>
                </mxCell>
                <mxCell id="38" value="Название произведения" style="rounded=0;whiteSpace=wrap;html=1;fontSize=20;" parent="1" vertex="1">
                    <mxGeometry x="1178" y="855" width="180" height="60" as="geometry"/>
                </mxCell>
                <mxCell id="39" value="Номер" style="rounded=0;whiteSpace=wrap;html=1;fontSize=20;" parent="1" vertex="1">
                    <mxGeometry x="950" y="855" width="77" height="60" as="geometry"/>
                </mxCell>
                <mxCell id="40" value="YouTube" style="rounded=0;whiteSpace=wrap;html=1;fontSize=20;" parent="1" vertex="1">
                    <mxGeometry x="950" y="940" width="620" height="260" as="geometry"/>
                </mxCell>
                <mxCell id="41" value="Edit" style="rounded=0;whiteSpace=wrap;html=1;fontSize=20;" parent="1" vertex="1">
                    <mxGeometry x="1492" y="855" width="70" height="60" as="geometry"/>
                </mxCell>
                <mxCell id="42" value="" style="rounded=0;whiteSpace=wrap;html=1;" parent="1" vertex="1">
                    <mxGeometry x="50" y="840" width="750" height="380" as="geometry"/>
                </mxCell>
                <mxCell id="43" value="&lt;font style=&quot;font-size: 24px;&quot;&gt;Добавление музыкального произведения&lt;/font&gt;" style="rounded=0;whiteSpace=wrap;html=1;" parent="1" vertex="1">
                    <mxGeometry x="214" y="720" width="400" height="80" as="geometry"/>
                </mxCell>
                <mxCell id="44" value="Композитор*" style="rounded=0;whiteSpace=wrap;html=1;fontSize=24;" parent="1" vertex="1">
                    <mxGeometry x="120" y="880" width="620" height="60" as="geometry"/>
                </mxCell>
                <mxCell id="45" value="Произведение*" style="rounded=0;whiteSpace=wrap;html=1;fontSize=24;" parent="1" vertex="1">
                    <mxGeometry x="120" y="954" width="620" height="60" as="geometry"/>
                </mxCell>
                <mxCell id="46" value="Ссылка на YouTube" style="rounded=0;whiteSpace=wrap;html=1;fontSize=24;" parent="1" vertex="1">
                    <mxGeometry x="120" y="1030" width="620" height="60" as="geometry"/>
                </mxCell>
                <mxCell id="48" value="Отмена" style="rounded=0;whiteSpace=wrap;html=1;fontSize=24;" parent="1" vertex="1">
                    <mxGeometry x="390" y="1140" width="160" height="60" as="geometry"/>
                </mxCell>
                <mxCell id="49" value="Добавить" style="rounded=0;whiteSpace=wrap;html=1;fontSize=24;" parent="1" vertex="1">
                    <mxGeometry x="580" y="1140" width="160" height="60" as="geometry"/>
                </mxCell>
                <mxCell id="51" value="" style="rounded=0;whiteSpace=wrap;html=1;" vertex="1" parent="1">
                    <mxGeometry x="850" y="200" width="750" height="380" as="geometry"/>
                </mxCell>
                <mxCell id="52" value="&lt;font style=&quot;font-size: 24px;&quot;&gt;Быстрый просмотр&lt;/font&gt;" style="rounded=0;whiteSpace=wrap;html=1;" vertex="1" parent="1">
                    <mxGeometry x="1041" y="90" width="400" height="80" as="geometry"/>
                </mxCell>
                <mxCell id="53" value="Композитор*" style="rounded=0;whiteSpace=wrap;html=1;fontSize=24;" vertex="1" parent="1">
                    <mxGeometry x="920" y="250" width="620" height="60" as="geometry"/>
                </mxCell>
                <mxCell id="54" value="Произведение*" style="rounded=0;whiteSpace=wrap;html=1;fontSize=24;" vertex="1" parent="1">
                    <mxGeometry x="920" y="324" width="620" height="60" as="geometry"/>
                </mxCell>
                <mxCell id="55" value="Ссылка на YouTube" style="rounded=0;whiteSpace=wrap;html=1;fontSize=24;" vertex="1" parent="1">
                    <mxGeometry x="920" y="400" width="620" height="60" as="geometry"/>
                </mxCell>
            </root>
        </mxGraphModel>
    </diagram>
</mxfile>